<?xml version="1.0" encoding="UTF-8"?>
<svg version="1.1" xmlns="http://www.w3.org/2000/svg" width="120" height="117">
<path d="M0 0 C39.6 0 79.2 0 120 0 C120 38.61 120 77.22 120 117 C80.4 117 40.8 117 0 117 C0 78.39 0 39.78 0 0 Z " fill="#FDFDFE" transform="translate(0,0)"/>
<path d="M0 0 C1.8984375 1.4765625 1.8984375 1.4765625 2.984375 3.7734375 C2.85697527 7.78073814 0.62692636 9.70022885 -2.1015625 12.3515625 C-2.80732422 13.11726563 -2.80732422 13.11726563 -3.52734375 13.8984375 C-4.9765625 15.34375 -4.9765625 15.34375 -8.1015625 17.4765625 C-11.68399038 17.36777673 -14.17233233 16.90350609 -17.4140625 15.4140625 C-23.50292487 13.29004074 -30.25592021 13.83965982 -36.15234375 16.36328125 C-41.60192935 19.47577002 -46.39413417 23.76088048 -49.1015625 29.4765625 C-49.689375 30.559375 -49.689375 30.559375 -50.2890625 31.6640625 C-52.27777266 38.54805922 -51.41313339 44.8495968 -48.66015625 51.37109375 C-47.91085996 54.19536437 -48.14750953 55.70686686 -49.1015625 58.4765625 C-51.2109375 61.1875 -51.2109375 61.1875 -53.8515625 63.8515625 C-54.71265625 64.74617188 -55.57375 65.64078125 -56.4609375 66.5625 C-59.1015625 68.4765625 -59.1015625 68.4765625 -61.73046875 68.61328125 C-67.1083664 66.03507991 -68.80984063 58.6844405 -70.92578125 53.4296875 C-73.88627396 43.93931371 -73.23459713 32.45924663 -69.1015625 23.4765625 C-68.59109375 22.26419922 -68.59109375 22.26419922 -68.0703125 21.02734375 C-62.14357198 7.95247362 -52.84094797 0.75338639 -39.87109375 -4.5078125 C-26.22600146 -9.51165452 -12.68532231 -5.88246807 0 0 Z " fill="#5367FE" transform="translate(93.1015625,14.5234375)"/>
<path d="M0 0 C0.825 0.350625 1.65 0.70125 2.5 1.0625 C10.58338794 3.2276932 17.56063175 2.56469729 25 -1 C29.05034903 -0.7249763 30.93597253 1.65808468 33.625 4.5 C36.50277024 7.66693163 36.50277024 7.66693163 40 10 C39.921875 12.265625 39.921875 12.265625 39 15 C36.71224902 16.52117474 34.72114527 17.63448301 32.25 18.75 C31.62867188 19.05292969 31.00734375 19.35585937 30.3671875 19.66796875 C20.21976313 24.48478412 7.14750421 24.66723344 -3.5625 21.375 C-8.70477098 19.40320506 -12.88260437 16.63299615 -17 13 C-15.47238013 9.37190281 -13.29392861 7.05653702 -10.5 4.3125 C-9.7059375 3.52488281 -8.911875 2.73726563 -8.09375 1.92578125 C-4.96997625 -0.94739125 -3.94936084 -1.20674915 0 0 Z " fill="#220558" transform="translate(56,79)"/>
<path d="M0 0 C3.99226485 2.07006326 6.60121205 4.22071301 9 8 C9.92233094 12.2684618 9.97110489 16.34882471 7.72265625 20.171875 C5.1100045 23.26361937 3.0127284 25.70931345 -1.13671875 26.30859375 C-6.09743834 26.55928861 -9.18750897 26.42919359 -13.0625 23.125 C-16.32744391 19.94456052 -17.1955285 17.80581505 -17.375 13.25 C-17.34830946 9.55602888 -17.05754397 7.37536866 -14.6875 4.5 C-9.78079787 -0.06437408 -6.50745496 -0.91215608 0 0 Z " fill="#210457" transform="translate(72,42)"/>
</svg>
